<svg xmlns="http://www.w3.org/2000/svg" viewBox="0 0 224.87999 102.749999" preserveAspectRatio="xMidYMid meet">
  <defs>
    <clipPath id="b7009f487f"><path d="M 59 52.984375 L 195.839844 52.984375 L 195.839844 96.652344 L 59 96.652344 Z M 59 52.984375 " clip-rule="nonzero"/></clipPath>
    <clipPath id="36cc43afcc"><path d="M 91.109375 52.984375 L 189.480469 52.984375 C 191.625 52.984375 193.605469 54.136719 194.664062 56 C 195.726562 57.863281 195.707031 60.152344 194.617188 61.996094 L 179.433594 87.636719 C 176.125 93.226562 170.113281 96.652344 163.621094 96.652344 L 65.25 96.652344 C 63.105469 96.652344 61.125 95.5 60.066406 93.636719 C 59.003906 91.773438 59.023438 89.484375 60.113281 87.636719 L 75.296875 61.996094 C 78.605469 56.410156 84.617188 52.984375 91.109375 52.984375 Z M 91.109375 52.984375 " clip-rule="nonzero"/></clipPath>
  </defs>
  <g clip-path="url(#b7009f487f)"><g clip-path="url(#36cc43afcc)"><path fill="#7fb719" d="M 54.777344 52.984375 L 199.933594 52.984375 L 199.933594 96.652344 L 54.777344 96.652344 Z M 54.777344 52.984375 " fill-opacity="1" fill-rule="nonzero"/></g></g>
  <g fill="#1f85c2" fill-opacity="1">
    <path d="M 18.02609 40.145364 L 28.947965 40.145364 L 28.947965 45.629739 L 11.479215 45.629739 L 11.479215 19.879739 L 18.02609 19.879739 Z M 18.02609 40.145364 " transform="translate(0, 0)"/>
    <path d="M 39.131883 25.582864 C 42.370164 25.582864 44.979539 26.512551 46.960008 28.364114 C 48.948289 30.219583 49.944383 32.668801 49.944383 35.707864 C 49.944383 38.739114 48.948289 41.188333 46.960008 43.051614 C 44.979539 44.918801 42.370164 45.848489 39.131883 45.848489 C 35.870164 45.848489 33.245164 44.918801 31.256883 43.051614 C 29.264696 41.188333 28.272508 38.739114 28.272508 35.707864 C 28.272508 32.668801 29.264696 30.219583 31.256883 28.364114 C 33.245164 26.512551 35.870164 25.582864 39.131883 25.582864 Z M 39.131883 30.629739 C 37.807664 30.629739 36.733446 31.110208 35.913133 32.067177 C 35.088914 33.016396 34.678758 34.250771 34.678758 35.770302 C 34.678758 37.313271 35.088914 38.559364 35.913133 39.504677 C 36.733446 40.453896 37.807664 40.926552 39.131883 40.926552 C 40.432664 40.926552 41.491258 40.453896 42.303758 39.504677 C 43.124071 38.559364 43.538133 37.313271 43.538133 35.770302 C 43.538133 34.250771 43.124071 33.016396 42.303758 32.067177 C 41.491258 31.110208 40.432664 30.629739 39.131883 30.629739 Z M 39.131883 30.629739 " transform="translate(0, 0)"/>
    <path d="M 70.209785 25.801614 L 70.209785 43.832864 C 70.209785 46.621927 69.217598 48.852396 67.241035 50.520364 C 65.272285 52.184427 62.678535 53.020364 59.459785 53.020364 C 56.178535 53.020364 53.233223 52.149271 50.63166 50.410989 L 52.85041 46.114114 C 54.75666 47.434427 56.803535 48.098489 58.991035 48.098489 C 60.510566 48.098489 61.701973 47.727396 62.56916 46.989114 C 63.44416 46.246927 63.88166 45.254739 63.88166 44.004739 L 63.88166 41.910989 C 62.526191 43.684427 60.623848 44.567239 58.178535 44.567239 C 55.655098 44.567239 53.604316 43.688333 52.022285 41.926614 C 50.436348 40.157083 49.647285 37.832864 49.647285 34.957864 C 49.647285 32.168801 50.416816 29.907083 51.959785 28.176614 C 53.498848 26.450051 55.526191 25.582864 58.03791 25.582864 C 60.557441 25.563333 62.50666 26.450051 63.88166 28.239114 L 63.88166 25.801614 Z M 59.75666 39.957864 C 60.983223 39.957864 61.979316 39.516458 62.741035 38.629739 C 63.498848 37.735177 63.88166 36.575021 63.88166 35.145333 C 63.88166 33.700021 63.498848 32.528146 62.741035 31.629708 C 61.979316 30.735177 60.983223 30.285958 59.75666 30.285958 C 58.50666 30.285958 57.494941 30.735177 56.72541 31.629708 C 55.952035 32.528146 55.569223 33.700021 55.569223 35.145333 C 55.569223 36.575021 55.952035 37.735177 56.72541 38.629739 C 57.494941 39.516458 58.50666 39.957864 59.75666 39.957864 Z M 59.75666 39.957864 " transform="translate(0, 0)"/>
    <path d="M 82.155413 25.582864 C 85.393694 25.582864 88.003069 26.512551 89.983538 28.364114 C 91.971819 30.219583 92.967913 32.668801 92.967913 35.707864 C 92.967913 38.739114 91.971819 41.188333 89.983538 43.051614 C 88.003069 44.918801 85.393694 45.848489 82.155413 45.848489 C 78.893694 45.848489 76.268694 44.918801 74.280413 43.051614 C 72.288225 41.188333 71.296038 38.739114 71.296038 35.707864 C 71.296038 32.668801 72.288225 30.219583 74.280413 28.364114 C 76.268694 26.512551 78.893694 25.582864 82.155413 25.582864 Z M 82.155413 30.629739 C 80.831194 30.629739 79.756975 31.110208 78.936663 32.067177 C 78.112444 33.016396 77.702288 34.250771 77.702288 35.770302 C 77.702288 37.313271 78.112444 38.559364 78.936663 39.504677 C 79.756975 40.453896 80.831194 40.926552 82.155413 40.926552 C 83.456194 40.926552 84.514788 40.453896 85.327288 39.504677 C 86.147601 38.559364 86.561663 37.313271 86.561663 35.770302 C 86.561663 34.250771 86.147601 33.016396 85.327288 32.067177 C 84.514788 31.110208 83.456194 30.629739 82.155413 30.629739 Z M 82.155413 30.629739 " transform="translate(0, 0)"/>
    <path d="M 106.748939 25.582864 C 109.54972 25.582864 111.79972 26.520364 113.498939 28.395364 C 115.20597 30.270364 116.061439 32.739114 116.061439 35.801614 C 116.061439 38.825051 115.225501 41.254739 113.561439 43.098489 C 111.89347 44.934427 109.67472 45.848489 106.905189 45.848489 C 104.29972 45.848489 102.272376 44.895364 100.827064 42.989114 L 100.827064 52.770364 L 94.467689 52.770364 L 94.467689 25.801614 L 100.827064 25.801614 L 100.827064 28.410989 C 102.303626 26.528177 104.280189 25.582864 106.748939 25.582864 Z M 105.217689 40.817239 C 106.537908 40.817239 107.608314 40.332864 108.420814 39.364114 C 109.241126 38.395364 109.655189 37.153177 109.655189 35.629739 C 109.655189 34.110208 109.241126 32.871927 108.420814 31.910989 C 107.608314 30.953958 106.537908 30.473489 105.217689 30.473489 C 103.936439 30.473489 102.881751 30.953958 102.061439 31.910989 C 101.23722 32.871927 100.827064 34.110208 100.827064 35.629739 C 100.827064 37.172708 101.233314 38.422708 102.045814 39.379739 C 102.858314 40.340677 103.913001 40.817239 105.217689 40.817239 Z M 105.217689 40.817239 " transform="translate(0, 0)"/>
    <path d="M 124.357555 22.254739 C 123.826305 22.785989 123.142711 23.051614 122.31068 23.051614 C 121.474742 23.051614 120.787242 22.785989 120.24818 22.254739 C 119.705211 21.723489 119.43568 21.043801 119.43568 20.207864 C 119.43568 19.375833 119.705211 18.692239 120.24818 18.160989 C 120.787242 17.621927 121.474742 17.348489 122.31068 17.348489 C 123.142711 17.348489 123.826305 17.621927 124.357555 18.160989 C 124.896617 18.692239 125.170055 19.375833 125.170055 20.207864 C 125.170055 21.043801 124.896617 21.723489 124.357555 22.254739 Z M 131.46693 22.254739 C 130.923961 22.785989 130.236461 23.051614 129.40443 23.051614 C 128.568492 23.051614 127.880992 22.785989 127.34193 22.254739 C 126.81068 21.723489 126.545055 21.043801 126.545055 20.207864 C 126.545055 19.375833 126.81068 18.692239 127.34193 18.160989 C 127.880992 17.621927 128.568492 17.348489 129.40443 17.348489 C 130.236461 17.348489 130.923961 17.621927 131.46693 18.160989 C 132.005992 18.692239 132.27943 19.375833 132.27943 20.207864 C 132.27943 21.043801 132.005992 21.723489 131.46693 22.254739 Z M 126.27943 25.504739 C 128.99818 25.504739 131.111461 26.141458 132.62318 27.410989 C 134.130992 28.672708 134.896617 30.426614 134.920055 32.676614 L 134.920055 45.629739 L 128.701305 45.629739 L 128.701305 43.348489 C 127.408336 45.067239 125.388805 45.926614 122.638805 45.926614 C 120.552867 45.926614 118.896617 45.356291 117.670055 44.207854 C 116.451305 43.051604 115.84193 41.551604 115.84193 39.707854 C 115.84193 37.825041 116.490367 36.360198 117.795055 35.317229 C 119.107555 34.278166 120.990367 33.739104 123.451305 33.707854 L 128.670055 33.707854 L 128.670055 33.410979 C 128.670055 32.434416 128.34193 31.668791 127.68568 31.114104 C 127.037242 30.563323 126.080211 30.285979 124.81068 30.285979 C 123.017711 30.285979 121.045055 30.840666 118.888805 31.942229 L 117.09193 27.754729 C 120.298961 26.254729 123.361461 25.504739 126.27943 25.504739 Z M 124.59193 41.614114 C 125.59193 41.614114 126.470836 41.364114 127.232555 40.864114 C 127.990367 40.364114 128.470836 39.707864 128.670055 38.895364 L 128.670055 37.129739 L 124.670055 37.129739 C 122.752086 37.129739 121.795055 37.844572 121.795055 39.270354 C 121.795055 40.000823 122.037242 40.575041 122.52943 40.989104 C 123.017711 41.407073 123.705211 41.614114 124.59193 41.614114 Z M 124.59193 41.614114 " transform="translate(0, 0)"/>
    <path d="M 157.324879 18.332864 L 157.324879 45.629739 L 150.949879 45.629739 L 150.949879 43.020364 C 149.512379 44.926614 147.528004 45.879739 144.996754 45.879739 C 142.203785 45.879739 139.957691 44.938333 138.262379 43.051614 C 136.574879 41.168801 135.731129 38.692239 135.731129 35.629739 C 135.731129 32.590677 136.56316 30.153177 138.231129 28.317239 C 139.895191 26.473489 142.106129 25.551614 144.856129 25.551614 C 147.481129 25.551614 149.512379 26.504739 150.949879 28.410989 L 150.949879 18.332864 Z M 143.340504 39.520364 C 144.153004 40.481239 145.21941 40.957802 146.543629 40.957802 C 147.863941 40.957802 148.926441 40.481239 149.731129 39.520364 C 150.543629 38.563333 150.949879 37.313333 150.949879 35.770364 C 150.949879 34.250833 150.543629 33.016458 149.731129 32.067239 C 148.926441 31.110208 147.863941 30.629739 146.543629 30.629739 C 145.21941 30.629739 144.153004 31.106302 143.340504 32.051614 C 142.528004 32.989114 142.110035 34.231302 142.090504 35.770364 C 142.110035 37.313333 142.528004 38.563333 143.340504 39.520364 Z M 143.340504 39.520364 " transform="translate(0, 0)"/>
    <path d="M 161.267149 17.692239 C 161.892149 17.067239 162.69293 16.754739 163.673399 16.754739 C 164.649961 16.754739 165.454649 17.067239 166.079649 17.692239 C 166.704649 18.317239 167.017149 19.121927 167.017149 20.098489 C 167.017149 21.078958 166.704649 21.891458 166.079649 22.535989 C 165.454649 23.172708 164.649961 23.489114 163.673399 23.489114 C 162.69293 23.489114 161.892149 23.172708 161.267149 22.535989 C 160.642149 21.891458 160.329649 21.078958 160.329649 20.098489 C 160.329649 19.121927 160.642149 18.317239 161.267149 17.692239 Z M 166.798399 45.629739 L 160.470274 45.629739 L 160.470274 25.801614 L 166.798399 25.801614 Z M 166.798399 45.629739 " transform="translate(0, 0)"/>
    <path d="M 178.497618 25.582864 C 181.935118 25.582864 184.513243 26.641458 186.231993 28.754739 C 187.958556 30.860208 188.716368 33.750833 188.497618 37.426614 L 174.560118 37.426614 C 174.880431 38.606302 175.442931 39.512552 176.247618 40.145364 C 177.060118 40.782083 178.052306 41.098489 179.231993 41.098489 C 181.044493 41.098489 182.626524 40.426614 183.981993 39.082864 L 187.325743 42.348489 C 185.189024 44.684427 182.310118 45.848489 178.685118 45.848489 C 175.466368 45.848489 172.903868 44.934427 170.997618 43.098489 C 169.099181 41.254739 168.153868 38.813333 168.153868 35.770364 C 168.153868 32.707864 169.099181 30.246927 170.997618 28.379739 C 172.903868 26.516458 175.403868 25.582864 178.497618 25.582864 Z M 174.450743 34.004739 L 182.388243 34.004739 C 182.388243 32.809427 182.036681 31.844583 181.341368 31.114114 C 180.642149 30.375833 179.720274 30.004739 178.575743 30.004739 C 177.489806 30.004739 176.579649 30.364114 175.841368 31.082864 C 175.1109 31.801614 174.646056 32.778177 174.450743 34.004739 Z M 174.450743 34.004739 " transform="translate(0, 0)"/>
  </g>
</svg>